<svg width="24" height="34" viewBox="0 0 24 34" fill="none" xmlns="http://www.w3.org/2000/svg">
<g id="attachment_24px">
<path id="icon/file/attachment_24px" d="M18 22.6667H6.5C4.29 22.6667 2.5 20.1308 2.5 17C2.5 13.8692 4.29 11.3333 6.5 11.3333H19C20.38 11.3333 21.5 12.92 21.5 14.875C21.5 16.83 20.38 18.4167 19 18.4167H8.5C7.95 18.4167 7.5 17.7792 7.5 17C7.5 16.2208 7.95 15.5833 8.5 15.5833H18V13.4583H8.5C7.12 13.4583 6 15.045 6 17C6 18.955 7.12 20.5417 8.5 20.5417H19C21.21 20.5417 23 18.0058 23 14.875C23 11.7442 21.21 9.20833 19 9.20833H6.5C3.46 9.20833 1 12.6933 1 17C1 21.3067 3.46 24.7917 6.5 24.7917H18V22.6667Z" fill="black" fill-opacity="0.54"/>
</g>
</svg>
