<svg width="17" height="17" viewBox="0 0 17 17" fill="none" xmlns="http://www.w3.org/2000/svg">
<path fill-rule="evenodd" clip-rule="evenodd" d="M8.33781 13.2607C8.48122 13.4041 8.68041 13.4918 8.90349 13.4918C9.12656 13.4918 9.32575 13.4041 9.46916 13.2607L13.4526 9.27724C13.596 9.13383 13.6837 8.93467 13.6837 8.71159C13.6837 8.27341 13.3252 7.9149 12.887 7.9149C12.6639 7.9149 12.4647 8.00254 12.3213 8.14594L9.70018 10.775V1.54133C9.70018 1.10314 9.34167 0.744629 8.90349 0.744629C8.4653 0.744629 8.10679 1.10314 8.10679 1.54133V10.775L5.48568 8.14594C5.34227 8.00254 5.14308 7.9149 4.92 7.9149C4.48182 7.9149 4.12331 8.27341 4.12331 8.71159C4.12331 8.93467 4.21093 9.13383 4.35433 9.27724L8.33781 13.2607ZM16.0738 11.8984C15.6356 11.8984 15.2771 12.2569 15.2771 12.6951V15.0852H2.52992V12.6951C2.52992 12.2569 2.1714 11.8984 1.73322 11.8984C1.29504 11.8984 0.936523 12.2569 0.936523 12.6951V15.8819C0.936523 16.32 1.29504 16.6786 1.73322 16.6786H16.0738C16.5119 16.6786 16.8704 16.32 16.8704 15.8819V12.6951C16.8704 12.2569 16.5119 11.8984 16.0738 11.8984Z" fill="#4A4B57"/>
</svg>
